<svg width="22" height="22" viewBox="0 0 22 22" fill="none" xmlns="http://www.w3.org/2000/svg">
<mask id="path-1-outside-1" maskUnits="userSpaceOnUse" x="0" y="0" width="22" height="22" fill="black">
<rect fill="white" width="22" height="22"/>
<path fill-rule="evenodd" clip-rule="evenodd" d="M11 4.27988C10.1205 2.90569 8.61661 2 6.90909 2C4.19787 2 2 4.28335 2 7.1C2 8.61473 2.63563 9.97522 3.6449 10.9093L11 19L18.5454 10.7236C19.4436 9.79931 20 8.51716 20 7.1C20 4.28335 17.8021 2 15.0909 2C13.3834 2 11.8795 2.90569 11 4.27988Z"/>
</mask>
<path fill-rule="evenodd" clip-rule="evenodd" d="M11 4.27988C10.1205 2.90569 8.61661 2 6.90909 2C4.19787 2 2 4.28335 2 7.1C2 8.61473 2.63563 9.97522 3.6449 10.9093L11 19L18.5454 10.7236C19.4436 9.79931 20 8.51716 20 7.1C20 4.28335 17.8021 2 15.0909 2C13.3834 2 11.8795 2.90569 11 4.27988Z" fill="#027AFF"/>
<path d="M11 4.27988L9.45443 5.26904L11 7.684L12.5456 5.26904L11 4.27988ZM3.6449 10.9093L5.0027 9.67496L4.94943 9.61636L4.89131 9.56257L3.6449 10.9093ZM11 19L9.6422 20.2343L10.9981 21.7258L12.356 20.2363L11 19ZM18.5454 10.7236L17.2295 9.4447L17.2091 9.46567L17.1894 9.48729L18.5454 10.7236ZM12.5456 3.29072C11.3545 1.42972 9.28861 0.165 6.90909 0.165V3.835C7.94462 3.835 8.88651 4.38165 9.45443 5.26904L12.5456 3.29072ZM6.90909 0.165C3.11908 0.165 0.165 3.33652 0.165 7.1H3.835C3.835 5.23018 5.27667 3.835 6.90909 3.835V0.165ZM0.165 7.1C0.165 9.13512 1.02069 10.9809 2.3985 12.256L4.89131 9.56257C4.25058 8.96957 3.835 8.09433 3.835 7.1H0.165ZM2.28711 12.1437L9.6422 20.2343L12.3578 17.7657L5.0027 9.67496L2.28711 12.1437ZM12.356 20.2363L19.9015 11.9598L17.1894 9.48729L9.64396 17.7637L12.356 20.2363ZM18.165 7.1C18.165 8.03042 17.8012 8.85633 17.2295 9.4447L19.8614 12.0024C21.086 10.7423 21.835 9.00389 21.835 7.1H18.165ZM15.0909 3.835C16.7233 3.835 18.165 5.23018 18.165 7.1H21.835C21.835 3.33652 18.8809 0.165 15.0909 0.165V3.835ZM12.5456 5.26904C13.1135 4.38165 14.0554 3.835 15.0909 3.835V0.165C12.7114 0.165 10.6455 1.42972 9.45443 3.29072L12.5456 5.26904Z" fill="white" mask="url(#path-1-outside-1)"/>
</svg>
