<svg width="18" height="17" viewBox="0 0 18 17" fill="none" xmlns="http://www.w3.org/2000/svg">
<mask id="path-1-inside-1" fill="white">
<path fill-rule="evenodd" clip-rule="evenodd" d="M9 2.27988C8.12052 0.905685 6.61661 0 4.90909 0C2.19787 0 0 2.28335 0 5.1C0 6.61473 0.635631 7.97522 1.6449 8.9093L9 17L16.5454 8.72356C17.4436 7.79931 18 6.51716 18 5.1C18 2.28335 15.8021 0 13.0909 0C11.3834 0 9.87948 0.905685 9 2.27988Z"/>
</mask>
<path fill-rule="evenodd" clip-rule="evenodd" d="M9 2.27988C8.12052 0.905685 6.61661 0 4.90909 0C2.19787 0 0 2.28335 0 5.1C0 6.61473 0.635631 7.97522 1.6449 8.9093L9 17L16.5454 8.72356C17.4436 7.79931 18 6.51716 18 5.1C18 2.28335 15.8021 0 13.0909 0C11.3834 0 9.87948 0.905685 9 2.27988Z" fill="white"/>
<path d="M9 2.27988L8.29671 2.72999L9 3.82889L9.7033 2.72999L9 2.27988ZM1.6449 8.9093L2.26276 8.34763L2.23852 8.32096L2.21207 8.29648L1.6449 8.9093ZM9 17L8.38215 17.5617L8.99912 18.2404L9.61706 17.5626L9 17ZM16.5454 8.72356L15.9466 8.14163L15.9373 8.15117L15.9284 8.16101L16.5454 8.72356ZM9.7033 1.82977C8.68205 0.234059 6.9224 -0.835 4.90909 -0.835V0.835C6.31083 0.835 7.55899 1.57731 8.29671 2.72999L9.7033 1.82977ZM4.90909 -0.835C1.70698 -0.835 -0.835 1.8525 -0.835 5.1H0.835C0.835 2.71419 2.68877 0.835 4.90909 0.835V-0.835ZM-0.835 5.1C-0.835 6.85153 -0.0992348 8.43283 1.07774 9.52212L2.21207 8.29648C1.3705 7.51761 0.835 6.37793 0.835 5.1H-0.835ZM1.02705 9.47098L8.38215 17.5617L9.61785 16.4383L2.26276 8.34763L1.02705 9.47098ZM9.61706 17.5626L17.1625 9.28612L15.9284 8.16101L8.38295 16.4374L9.61706 17.5626ZM17.165 5.1C17.165 6.29567 16.6963 7.37021 15.9466 8.14163L17.1442 9.3055C18.191 8.22841 18.835 6.73864 18.835 5.1H17.165ZM13.0909 0.835C15.3112 0.835 17.165 2.71419 17.165 5.1H18.835C18.835 1.8525 16.293 -0.835 13.0909 -0.835V0.835ZM9.7033 2.72999C10.441 1.57731 11.6892 0.835 13.0909 0.835V-0.835C11.0776 -0.835 9.31796 0.23406 8.29671 1.82977L9.7033 2.72999Z" fill="#D6D6D6" mask="url(#path-1-inside-1)"/>
</svg>
