<svg width="168" height="38" viewBox="0 0 168 38" fill="none" xmlns="http://www.w3.org/2000/svg">
<path fill-rule="evenodd" clip-rule="evenodd" d="M24.4534 22.1464C23.384 20.7467 22.0863 19.7996 20.7042 19.4155C19.26 18.9725 17.5752 19.1291 16.2874 19.7752C12.888 21.4294 10.6647 26.2721 10.3273 32.7275C10.2801 33.3196 10.2801 33.8874 10.2801 34.4526C10.2801 34.805 10.2975 35.1574 10.3074 35.5122C11.2975 36.0163 12.3297 36.4494 13.4116 36.7773C13.3991 36.398 13.3743 36.0236 13.3669 35.6419C13.3446 35.2871 13.3446 34.8711 13.3446 34.4526C13.3446 34.0342 13.3446 33.6157 13.3694 33.2218C13.6349 26.8349 15.9946 22.1855 18.9772 22.1855C19.4709 22.1855 19.9151 22.2981 20.3394 22.5208C22.8431 23.7419 24.6098 28.6531 24.6098 34.4526C24.6098 35.2308 24.6544 35.9943 24.6842 36.7651C25.7363 36.4396 26.7412 36.0163 27.7065 35.5269C27.699 35.1647 27.6742 34.8148 27.6742 34.4526C27.6742 29.2453 26.5303 24.8748 24.4534 22.1464" fill="#24264C"/>
<path fill-rule="evenodd" clip-rule="evenodd" d="M29.4198 19.3457C28.472 17.7013 27.3504 16.3481 26.08 15.3276C24.8592 14.3023 23.5217 13.5853 22.085 13.1767C20.5739 12.7705 18.9784 12.6554 17.4896 12.8488C15.646 13.0959 13.9587 13.7689 12.4674 14.8529L12.1945 15.0829C8.07052 18.2372 5.67356 24.4087 5.53212 32.0606C6.46758 32.9905 7.50229 33.8176 8.61641 34.5395C8.56926 33.984 8.56926 33.3722 8.56926 32.7629C8.56926 32.1512 8.56926 31.5394 8.61889 30.9276C8.99357 23.77 11.5071 18.5308 15.517 16.5781C17.1894 15.7314 19.363 15.5454 21.1918 16.1058C22.9163 16.5879 24.5242 17.7453 25.8244 19.4436C28.1221 22.4633 29.3876 27.1959 29.3876 32.7629C29.3876 33.3625 29.4149 33.9498 29.4347 34.537C30.5166 33.8372 31.524 33.0394 32.4346 32.1414C32.3577 27.2546 31.3602 22.9086 29.5216 19.5513L29.4198 19.3457Z" fill="#24264C"/>
<path fill-rule="evenodd" clip-rule="evenodd" d="M34.6018 17.4005L34.5299 17.2121C33.6912 15.3376 32.6887 13.703 31.5498 12.3473C30.4754 11.0332 29.2843 9.94186 28.0065 9.09273C26.741 8.22402 25.3539 7.54863 23.8751 7.0739C22.3912 6.62854 20.8081 6.38628 19.1804 6.36426H18.9769C17.2152 6.36426 15.5229 6.62854 13.9473 7.14487C11.7662 7.82515 9.78112 8.99485 8.03179 10.6295C4.40658 13.9868 2.08157 19.0914 1.18333 25.2702C1.826 27.0125 2.72176 28.6325 3.83091 30.0909C4.02693 22.2408 6.52563 15.8197 10.8134 12.3204V12.3155L11.1409 12.039C12.9399 10.6466 14.9969 9.79014 17.2623 9.4867C18.9744 9.26158 20.8032 9.39127 22.5475 9.86355C24.2274 10.3383 25.7832 11.1727 27.1752 12.3424C28.6516 13.5268 29.9493 15.1076 31.0262 17.0285L31.1329 17.2488C33.0038 20.7628 34.0311 25.2188 34.1428 30.1888C35.2445 28.7597 36.1402 27.1692 36.7928 25.4587C36.3784 22.5271 35.6638 19.7839 34.6018 17.4005" fill="#24264C"/>
<path fill-rule="evenodd" clip-rule="evenodd" d="M13.3942 4.2045C15.1311 3.63434 17.007 3.34069 18.9548 3.34069H19.1682C20.9697 3.36516 22.714 3.63189 24.3641 4.13354C26.0192 4.65966 27.5576 5.4109 28.9521 6.3677C30.359 7.30493 31.6766 8.50888 32.8503 9.9453C34.1207 11.4551 35.2298 13.2831 36.1479 15.368L36.2199 15.5515C36.9296 17.1739 37.4606 18.9334 37.8923 20.7613C37.932 20.2597 37.9692 19.7531 37.9692 19.2417C37.9692 8.90775 29.4533 0.502103 18.9772 0.489868C8.49357 0.502103 0 8.88573 0 19.2294C0 19.6454 0.0347385 20.0541 0.0620331 20.4628C1.29773 15.346 3.58551 11.0783 6.83109 8.06841C8.769 6.26003 10.9774 4.96064 13.3942 4.2045" fill="#24264C"/>
<path fill-rule="evenodd" clip-rule="evenodd" d="M81.9445 15.9714C81.8775 13.982 81.0612 12.1467 79.6269 10.7518C78.1381 9.30319 76.1729 8.56662 74.0787 8.52502C71.8108 8.53726 69.6744 9.51119 68.2129 11.2046L67.6992 11.7992L67.1781 11.2094C65.7117 9.543 63.5802 8.59109 61.3297 8.59109H61.2875C59.1982 8.60088 57.2355 9.41331 55.7616 10.8791C54.2926 12.34 53.4887 14.2683 53.4985 16.314L53.5557 26.8364C53.5581 27.223 53.707 27.5803 53.9775 27.8421C54.2405 28.1015 54.6003 28.2459 54.9899 28.2459H54.9973C55.3695 28.2434 55.7169 28.0966 55.975 27.8372C56.2405 27.5656 56.3844 27.2083 56.3819 26.8241L56.3248 16.2993C56.3174 14.9877 56.8335 13.7544 57.7789 12.8245C58.7218 11.8995 59.9724 11.3856 61.3024 11.3783H61.3297C62.6497 11.3783 63.8879 11.8799 64.8209 12.7902C65.7613 13.7079 66.2824 14.9339 66.2873 16.2455L66.3469 26.7703C66.3494 27.1496 66.5032 27.5069 66.7786 27.7711C67.0516 28.0354 67.4064 28.1774 67.7786 28.1774H67.7861C68.1583 28.1749 68.5056 28.0305 68.7662 27.7662C69.0292 27.4995 69.1756 27.1398 69.1731 26.7556L69.1161 16.2308C69.1012 13.5342 71.3368 11.3269 74.0911 11.3122H74.1234C75.441 11.3122 76.6866 11.8114 77.6295 12.7193C78.5848 13.6418 79.1158 14.8678 79.1208 16.1794L79.1803 26.7042C79.1828 27.0884 79.3292 27.4457 79.5972 27.71C79.8577 27.9669 80.2026 28.1113 80.5698 28.1113C80.9619 28.0672 81.3118 27.962 81.5847 27.6928C81.8577 27.4261 82.009 27.0664 82.0066 26.6895L81.9519 16.5391" fill="#24264C"/>
<path fill-rule="evenodd" clip-rule="evenodd" d="M91.184 0.079834H91.179C90.8316 0.082281 90.4495 0.248681 90.1815 0.51541C89.916 0.779693 89.7498 1.15899 89.7498 1.50402C89.7522 1.84661 89.921 2.22101 90.1939 2.48529V2.48529C90.4371 2.7251 90.8068 2.86703 91.184 2.86703H91.1939C91.5735 2.86703 91.9482 2.72021 92.1914 2.4755C92.4346 2.23325 92.5785 1.86374 92.5785 1.48445C92.576 1.11249 92.4271 0.745434 92.179 0.505622C91.911 0.24134 91.5314 0.079834 91.184 0.079834" fill="#24264C"/>
<path fill-rule="evenodd" clip-rule="evenodd" d="M90.3056 27.607C90.5736 27.8664 90.9334 28.0108 91.3205 28.0108H91.3304C92.1095 28.0083 92.7174 27.3819 92.715 26.589L92.6231 9.75816C92.6207 9.00202 91.9929 8.39026 91.2286 8.39026H91.2237C90.8316 8.39271 90.4694 8.53953 90.2014 8.80381C89.9383 9.0632 89.7944 9.40824 89.7969 9.77285L89.8887 26.6062C89.8887 26.9904 90.0376 27.3476 90.3056 27.607" fill="#24264C"/>
<path fill-rule="evenodd" clip-rule="evenodd" d="M138.066 24.9375H138.021C136.123 24.9375 134.332 24.2548 132.969 23.0068C131.567 21.7245 130.788 19.9895 130.781 18.1224C130.761 14.2463 134.061 10.9574 137.992 10.933H138.026C139.907 10.933 141.661 11.6818 142.969 13.0448C144.254 14.3833 144.969 16.1599 144.979 18.0466C145.001 21.9545 142.029 24.9155 138.066 24.9375M138.031 8.18738H137.977C135.272 8.20206 132.748 9.23961 130.878 11.1043C129.004 12.9689 127.982 15.4674 127.997 18.1371C128.027 23.5892 132.329 27.6831 138.019 27.6831H138.081C140.463 27.6709 142.312 27.0469 143.9 25.7206L145.016 24.7882L145.024 26.232C145.026 26.7214 145.331 27.0713 145.51 27.2353C145.818 27.5142 146.167 27.639 146.378 27.639H146.381C147.239 27.6366 147.813 27.064 147.808 26.2173L147.765 18.0343C147.733 12.411 143.552 8.18738 138.031 8.18738" fill="#24264C"/>
<path fill-rule="evenodd" clip-rule="evenodd" d="M110.336 10.9555H110.376C114.284 10.9555 117.475 14.0632 117.495 17.9002V17.9394C117.505 19.8163 116.776 21.5855 115.438 22.9167C114.101 24.2504 112.317 24.9869 110.413 24.9967H110.371C108.488 24.9967 106.714 24.2724 105.366 22.951C104.014 21.6271 103.265 19.8775 103.255 18.0152C103.232 14.144 106.411 10.9775 110.336 10.9555M100.426 18.0299C100.456 23.4208 104.912 27.7863 110.374 27.7863H110.428C113.073 27.7717 115.562 26.7341 117.438 24.867C119.314 22.9975 120.339 20.5333 120.324 17.9272L120.222 1.36546C120.22 0.599529 119.589 0 118.788 0H118.78C118.408 0.00244706 118.061 0.146824 117.798 0.408659C117.537 0.670494 117.393 1.01553 117.396 1.38259L117.458 10.9457L116.356 10.1284C114.654 8.86325 112.53 8.16583 110.371 8.16583H110.322C104.838 8.1952 100.399 12.6219 100.426 18.0299" fill="#24264C"/>
<path fill-rule="evenodd" clip-rule="evenodd" d="M161.435 27.2103H161.482C163.038 27.2005 164.338 26.8432 165.462 26.1189C166.949 25.1181 167.842 23.4712 167.835 21.7215C167.822 19.7419 166.567 17.9115 164.634 17.0574C163.549 16.5778 162.42 16.5485 161.428 16.5191L161.17 16.5093C160.43 16.5118 159.726 16.5166 159.14 16.3478C158.306 16.0468 157.679 15.139 157.567 14.6104C157.443 13.4211 157.904 12.7482 158.311 12.3713C159.554 11.2188 161.718 11.4561 162.353 11.5589C163.395 11.7204 163.991 12.1389 164.621 12.5793C164.743 12.6503 164.956 12.7213 165.177 12.7433C165.619 12.7922 166.058 12.6258 166.356 12.3028C166.586 12.0532 166.708 11.7131 166.688 11.3534C166.666 10.9887 166.507 10.6559 166.242 10.4186C165.331 9.60371 164.269 9.12898 162.793 8.88182C160.855 8.56615 158.133 8.82065 156.336 10.4675C155.187 11.5614 154.674 12.9978 154.82 14.723C154.966 16.453 156.48 18.3006 158.197 18.8438C159.259 19.2133 160.324 19.2402 161.185 19.2329C162.083 19.2255 162.869 19.2206 163.505 19.5363C164.257 19.852 165.105 20.6032 165.113 21.7338C165.115 22.6147 164.644 23.4394 163.879 23.8945C161.802 25.2624 158.413 24.2004 157.277 23.1506C157.038 22.9377 156.708 22.8129 156.371 22.8129C156.344 22.8129 156.319 22.8154 156.291 22.8154C155.939 22.8374 155.617 22.9916 155.386 23.2534C155.11 23.5397 154.984 23.875 154.999 24.2249C155.014 24.5871 155.17 24.9174 155.438 25.1597C156.559 26.185 158.964 27.2103 161.435 27.2103" fill="#24264C"/>
<path fill-rule="evenodd" clip-rule="evenodd" d="M19.5526 25.7096C19.3541 25.6043 19.1854 25.5627 18.9769 25.5627C17.2847 25.5627 15.0564 28.2202 15.0812 34.9986C15.0812 35.3754 15.0564 35.7596 15.0564 36.1414C15.0564 36.5011 15.0589 36.8608 15.0788 37.1985C15.9249 37.3771 16.7958 37.4824 17.6792 37.5435C17.5874 36.205 17.57 35.2409 17.5353 33.4496C17.4459 29.0474 19.6444 26.5783 20.2374 32.253C20.4161 33.9757 20.4335 35.2139 20.5153 37.5362C21.3367 37.4726 22.1481 37.3722 22.9371 37.2083C22.9272 36.851 22.9049 36.5011 22.8974 36.1414C22.7833 29.1844 21.1977 26.5122 19.5526 25.7096" fill="#24264C"/>
</svg>
